<svg width="101" height="19" viewBox="0 0 101 19" fill="none" xmlns="http://www.w3.org/2000/svg">
<g clip-path="url(#clip0_37030_445)">
<path d="M1.26449 17.0498C0.36955 15.7875 -0.0747041 14.2741 1.02073e-05 12.7421V6.35753C-0.108365 4.80911 0.308071 3.26884 1.18546 1.97291C2.05478 0.972914 3.39829 0.511375 5.37403 0.511375C7.34978 0.511375 8.61425 0.972914 9.40455 1.81907C10.2626 2.89078 10.6846 4.23273 10.59 5.5883V7.12676H6.71754V5.35753C6.74881 4.83426 6.66808 4.31038 6.48045 3.81907C6.38016 3.62075 6.2212 3.45617 6.02403 3.34651C5.82686 3.23684 5.60049 3.1871 5.37403 3.20368C4.82082 3.20368 4.42568 3.35753 4.26762 3.74214C4.08883 4.2887 4.00862 4.86126 4.03053 5.43445V13.6652C3.98879 14.2213 4.0978 14.7784 4.34665 15.2806C4.5047 15.6652 4.89985 15.8191 5.45306 15.8191C6.00627 15.8191 6.32239 15.6652 6.48045 15.2806C6.66013 14.7607 6.74049 14.2133 6.71754 13.6652V11.8191H10.59V13.3575C10.6704 14.7352 10.2508 16.0966 9.40455 17.2037C8.61425 18.1268 7.27075 18.5883 5.37403 18.5883C3.47732 18.5114 2.05478 18.0498 1.26449 17.0498Z" fill="#111111"/>
<path d="M15.2528 0.742149H19.7575L23.0767 18.2806H19.4413L18.8091 14.5883H16.2011L15.5689 18.2806H11.8545L15.2528 0.742149ZM18.493 12.2806L17.5446 5.43446L16.5963 12.2806H18.493Z" fill="#111111"/>
<path d="M25.8427 3.66523H23.1557V0.742149H32.5602V3.5883H29.8732V18.2806H25.8427V3.66523Z" fill="#111111"/>
<path d="M39.7519 0.742149H46.7066V2.5883H42.2019V8.35753H45.8372V10.1268H42.2019V16.5883H46.7066V18.3575H39.6729V0.742149H39.7519Z" fill="#111111"/>
<path d="M48.7614 0.742149H50.5L55.6369 12.3575V0.742149H57.6917V18.2806H56.1111L50.8952 6.28061V18.2806H48.7614V0.742149Z" fill="#111111"/>
<path d="M60.0626 0.742149H67.0172V2.5883H62.5125V8.35753H66.1479V10.1268H62.5125V16.5883H67.0172V18.3575H60.0626V0.742149Z" fill="#111111"/>
<path d="M69.072 0.742144H72.7074C74.1375 0.645992 75.5587 1.02573 76.7379 1.81907C77.6072 2.51137 78.0024 3.74214 78.0024 5.35753C78.0024 7.5883 77.2911 8.97291 75.7895 9.43445L78.3185 18.2037H75.8686L73.4977 9.97291H71.5219V18.2037H68.993V0.742144H69.072ZM72.5493 8.2806C73.364 8.34595 74.1761 8.12789 74.8412 7.66522C75.3154 7.2806 75.5524 6.51137 75.5524 5.35753C75.5743 4.78434 75.4941 4.21178 75.3154 3.66522C75.1375 3.27303 74.832 2.94867 74.446 2.74214C73.9017 2.50072 73.3042 2.39497 72.7074 2.43445H71.601V8.20368H72.5493V8.2806Z" fill="#111111"/>
<path d="M81.1635 16.9729C80.342 15.6279 79.9564 14.073 80.0571 12.5114V6.66522C80.0376 5.55048 80.1705 4.43817 80.4522 3.35752C80.7167 2.55 81.2437 1.84805 81.9538 1.35752C82.8362 0.84912 83.8542 0.608101 84.8779 0.665216C86.5375 0.665216 87.723 1.04983 88.4342 1.89599C89.2524 3.01328 89.6438 4.37374 89.5407 5.74214V6.35752H87.1698V5.81906C87.1733 5.17483 87.1205 4.53147 87.0117 3.89599C86.9451 3.4944 86.7177 3.13485 86.3795 2.89599C85.9353 2.61219 85.4081 2.47716 84.8779 2.51137C84.3112 2.47603 83.7504 2.6398 83.2973 2.97291C83.1114 3.12538 82.9595 3.31318 82.8507 3.52482C82.742 3.73645 82.6788 3.96745 82.6651 4.20368C82.5609 4.89136 82.5081 5.58549 82.507 6.2806V12.8191C82.4488 13.8152 82.6104 14.8119 82.9812 15.7421C83.2973 16.3575 83.9295 16.5883 84.8779 16.5883C85.2523 16.6337 85.6322 16.5703 85.9697 16.4061C86.3072 16.2418 86.5873 15.984 86.7746 15.6652C87.1922 14.6925 87.3812 13.6412 87.3278 12.5883V11.3575H85.036V9.58829H89.6197V18.2806H88.0391L87.802 16.2806C87.5948 16.9509 87.1634 17.5345 86.5763 17.9387C85.9892 18.3429 85.2801 18.5445 84.5618 18.5114C83.9088 18.5488 83.2564 18.4278 82.6633 18.1592C82.0702 17.8907 81.5548 17.4831 81.1635 16.9729Z" fill="#111111"/>
<path d="M94.6776 12.1268L90.8052 0.819069H93.1761L95.9421 9.28061L98.6291 0.819069H101L97.1276 12.1268V18.2806H94.7567V12.1268H94.6776Z" fill="#111111"/>
</g>
<defs>
<clipPath id="clip0_37030_445">
<rect width="101" height="18" fill="white" transform="translate(0 0.511375)"/>
</clipPath>
</defs>
</svg>
